<?xml version="1.0" encoding="UTF-8"?>
<svg xmlns="http://www.w3.org/2000/svg" xmlns:xlink="http://www.w3.org/1999/xlink" width="120px" height="90px" viewBox="0 0 90 90" version="1.1">
<defs>
<linearGradient id="linear0" gradientUnits="userSpaceOnUse" x1="27.068001" y1="7.254" x2="23.068001" y2="29.087" gradientTransform="matrix(1.875,0,0,1.875,0,0)">
<stop offset="0" style="stop-color:rgb(50.196078%,90.980392%,12.156863%);stop-opacity:1;"/>
<stop offset="0.339" style="stop-color:rgb(40.392157%,82.745098%,14.901961%);stop-opacity:1;"/>
<stop offset="1" style="stop-color:rgb(3.137255%,50.980392%,25.882353%);stop-opacity:1;"/>
</linearGradient>
<filter id="alpha" filterUnits="objectBoundingBox" x="0%" y="0%" width="100%" height="100%">
  <feColorMatrix type="matrix" in="SourceGraphic" values="0 0 0 0 1 0 0 0 0 1 0 0 0 0 1 0 0 0 1 0"/>
</filter>
<mask id="mask0">
  <g filter="url(#alpha)">
<rect x="0" y="0" width="90" height="90" style="fill:rgb(0%,0%,0%);fill-opacity:0.0509804;stroke:none;"/>
  </g>
</mask>
<clipPath id="clip1">
  <rect x="0" y="0" width="90" height="90"/>
</clipPath>
<g id="surface5" clip-path="url(#clip1)">
<path style=" stroke:none;fill-rule:nonzero;fill:rgb(0%,0%,0%);fill-opacity:1;" d="M 11.25 48.75 L 78.75 48.75 L 78.75 60 L 11.25 60 Z M 11.25 48.75 "/>
</g>
<mask id="mask1">
  <g filter="url(#alpha)">
<rect x="0" y="0" width="90" height="90" style="fill:rgb(0%,0%,0%);fill-opacity:0.0705882;stroke:none;"/>
  </g>
</mask>
<clipPath id="clip2">
  <rect x="0" y="0" width="90" height="90"/>
</clipPath>
<g id="surface8" clip-path="url(#clip2)">
<path style=" stroke:none;fill-rule:nonzero;fill:rgb(0%,0%,0%);fill-opacity:1;" d="M 11.25 50.625 L 78.75 50.625 L 78.75 61.875 L 11.25 61.875 Z M 11.25 50.625 "/>
</g>
<linearGradient id="linear1" gradientUnits="userSpaceOnUse" x1="23.524" y1="41.334" x2="24.024" y2="28.500999" gradientTransform="matrix(1.875,0,0,1.875,0,0)">
<stop offset="0" style="stop-color:rgb(50.196078%,90.980392%,12.156863%);stop-opacity:1;"/>
<stop offset="0.258" style="stop-color:rgb(44.313725%,87.45098%,12.941176%);stop-opacity:1;"/>
<stop offset="1" style="stop-color:rgb(1.960784%,63.921569%,20%);stop-opacity:1;"/>
</linearGradient>
<mask id="mask2">
  <g filter="url(#alpha)">
<rect x="0" y="0" width="90" height="90" style="fill:rgb(0%,0%,0%);fill-opacity:0.0509804;stroke:none;"/>
  </g>
</mask>
<clipPath id="clip3">
  <rect x="0" y="0" width="90" height="90"/>
</clipPath>
<g id="surface11" clip-path="url(#clip3)">
<path style=" stroke:none;fill-rule:nonzero;fill:rgb(0%,0%,0%);fill-opacity:1;" d="M 64.621094 57.238281 L 63.96875 53.554688 L 33.65625 23.242188 C 32.238281 21.824219 29.765625 21.824219 28.355469 23.242188 L 21.722656 29.871094 C 21.015625 30.578125 20.625 31.523438 20.625 32.527344 C 20.625 33.527344 21.015625 34.46875 21.722656 35.171875 L 52.042969 65.496094 L 66.5 67.914062 Z M 64.621094 57.238281 "/>
</g>
<mask id="mask3">
  <g filter="url(#alpha)">
<rect x="0" y="0" width="90" height="90" style="fill:rgb(0%,0%,0%);fill-opacity:0.0705882;stroke:none;"/>
  </g>
</mask>
<clipPath id="clip4">
  <rect x="0" y="0" width="90" height="90"/>
</clipPath>
<g id="surface14" clip-path="url(#clip4)">
<path style=" stroke:none;fill-rule:nonzero;fill:rgb(0%,0%,0%);fill-opacity:1;" d="M 63.097656 54.011719 L 32.992188 23.90625 C 31.929688 22.84375 30.074219 22.84375 29.015625 23.90625 L 22.386719 30.53125 C 21.851562 31.0625 21.5625 31.773438 21.5625 32.523438 C 21.5625 33.277344 21.855469 33.980469 22.386719 34.511719 L 52.496094 64.621094 L 57.699219 65.492188 L 65.34375 66.769531 Z M 63.097656 54.011719 "/>
</g>
<linearGradient id="linear2" gradientUnits="userSpaceOnUse" x1="26.625" y1="22.458" x2="21.625" y2="27.458" gradientTransform="matrix(1.875,0,0,1.875,0,0)">
<stop offset="0.305" style="stop-color:rgb(96.078431%,98.823529%,100%);stop-opacity:1;"/>
<stop offset="0.704" style="stop-color:rgb(82.745098%,90.196078%,82.745098%);stop-opacity:1;"/>
<stop offset="0.865" style="stop-color:rgb(64.313725%,79.607843%,64.705882%);stop-opacity:1;"/>
</linearGradient>
</defs>
<g id="surface1">
<path style=" stroke:none;fill-rule:nonzero;fill:url(#linear0);" d="M 56.25 78.75 L 33.75 78.75 C 21.324219 78.75 11.25 68.675781 11.25 56.25 L 11.25 33.75 C 11.25 21.324219 21.324219 11.25 33.75 11.25 L 78.75 11.25 L 78.75 56.25 C 78.75 68.675781 68.675781 78.75 56.25 78.75 Z M 56.25 78.75 "/>
<use xlink:href="#surface5" mask="url(#mask0)"/>
<use xlink:href="#surface8" mask="url(#mask1)"/>
<path style=" stroke:none;fill-rule:nonzero;fill:url(#linear1);" d="M 56.25 78.75 L 33.75 78.75 C 21.324219 78.75 11.25 68.675781 11.25 56.25 L 11.25 52.5 L 78.75 52.5 L 78.75 56.25 C 78.75 68.675781 68.675781 78.75 56.25 78.75 Z M 56.25 78.75 "/>
<use xlink:href="#surface11" mask="url(#mask2)"/>
<use xlink:href="#surface14" mask="url(#mask3)"/>
<path style=" stroke:none;fill-rule:nonzero;fill:url(#linear2);" d="M 63.398438 61.117188 L 64.191406 65.625 L 59.648438 64.867188 Z M 23.050781 33.847656 L 52.945312 63.746094 L 57.375 64.484375 L 63 58.859375 L 62.226562 54.464844 L 32.332031 24.566406 C 31.597656 23.832031 30.410156 23.832031 29.679688 24.566406 L 23.050781 31.195312 C 22.316406 31.925781 22.316406 33.117188 23.050781 33.847656 Z M 23.050781 33.847656 "/>
</g>
</svg>
