<?xml version="1.0" encoding="UTF-8"?>
<svg xmlns="http://www.w3.org/2000/svg" xmlns:xlink="http://www.w3.org/1999/xlink" width="90px" height="90px" viewBox="0 0 90 90" version="1.1">
<g id="surface1">
<path style=" stroke:none;fill-rule:nonzero;fill:rgb(9.803922%,46.27451%,82.352942%);fill-opacity:1;" d="M 0 22.5 L 0 67.5 L 46.875 67.5 L 90 22.5 Z M 0 22.5 "/>
<path style=" stroke:none;fill-rule:nonzero;fill:rgb(100%,100%,100%);fill-opacity:1;" d="M 51.5625 33.75 L 43.125 33.75 L 43.125 51.5625 L 36 33.75 L 29.4375 33.75 L 23.648438 48.53125 C 22.886719 45.246094 19.410156 44 17.25 43.5 C 11.625 42 11.25 41.25 11.25 40.125 C 11.25 37.3125 18.75 38.625 20.625 39.375 C 21.1875 37.875 22.3125 35.0625 22.3125 35.0625 C 22.3125 35.0625 20.25 33.75 13.875 33.75 C 7.5 33.75 5.625 37.6875 5.625 40.125 C 5.625 42.5625 6.9375 45.375 10.5 46.5 C 14.25 47.625 17.0625 47.8125 17.0625 49.6875 C 17.0625 51.5625 10.6875 51.9375 7.125 49.6875 L 5.625 54.5625 C 5.625 54.5625 7.6875 56.25 13.875 56.25 C 17.214844 56.25 19.8125 55.308594 21.523438 53.953125 L 20.625 56.25 L 27.1875 56.25 L 28.3125 52.875 C 29.625 53.4375 31.125 53.8125 32.8125 53.8125 C 34.5 53.8125 36 53.4375 37.3125 52.875 L 38.4375 56.25 L 48.75 56.25 L 48.75 50.625 L 51.5625 50.625 C 56.25 50.625 60 46.875 60 42.1875 C 60 37.5 56.25 33.75 51.5625 33.75 Z M 32.8125 48.9375 C 31.6875 48.9375 30.75 48.75 30 48.1875 L 32.8125 40.125 L 35.625 48.1875 C 34.875 48.75 33.9375 48.9375 32.8125 48.9375 Z M 51.5625 45 L 48.75 45 L 48.75 39.375 L 51.5625 39.375 C 53.0625 39.375 54.375 40.6875 54.375 42.1875 C 54.375 43.6875 53.0625 45 51.5625 45 Z M 51.5625 45 "/>
</g>
</svg>
