<?xml version="1.0" encoding="UTF-8"?>
<svg xmlns="http://www.w3.org/2000/svg" xmlns:xlink="http://www.w3.org/1999/xlink" width="90px" height="90px" viewBox="0 0 90 90" version="1.1">
<g id="surface1">
<path style=" stroke:none;fill-rule:nonzero;fill:rgb(29.803923%,68.627453%,31.37255%);fill-opacity:1;" d="M 76.875 18.75 L 46.875 18.75 L 46.875 71.25 L 76.875 71.25 C 77.910156 71.25 78.75 70.410156 78.75 69.375 L 78.75 20.625 C 78.75 19.589844 77.910156 18.75 76.875 18.75 Z M 76.875 18.75 "/>
<path style=" stroke:none;fill-rule:nonzero;fill:rgb(100%,100%,100%);fill-opacity:1;" d="M 60 28.125 L 73.125 28.125 L 73.125 33.75 L 60 33.75 Z M 60 46.875 L 73.125 46.875 L 73.125 52.5 L 60 52.5 Z M 60 56.25 L 73.125 56.25 L 73.125 61.875 L 60 61.875 Z M 60 37.5 L 73.125 37.5 L 73.125 43.125 L 60 43.125 Z M 46.875 28.125 L 56.25 28.125 L 56.25 33.75 L 46.875 33.75 Z M 46.875 46.875 L 56.25 46.875 L 56.25 52.5 L 46.875 52.5 Z M 46.875 56.25 L 56.25 56.25 L 56.25 61.875 L 46.875 61.875 Z M 46.875 37.5 L 56.25 37.5 L 56.25 43.125 L 46.875 43.125 Z M 46.875 37.5 "/>
<path style=" stroke:none;fill-rule:nonzero;fill:rgb(18.039216%,49.019608%,19.607843%);fill-opacity:1;" d="M 50.625 78.75 L 11.25 71.25 L 11.25 18.75 L 50.625 11.25 Z M 50.625 78.75 "/>
<path style=" stroke:none;fill-rule:nonzero;fill:rgb(100%,100%,100%);fill-opacity:1;" d="M 35.867188 58.125 L 31.347656 49.574219 C 31.171875 49.253906 30.996094 48.667969 30.8125 47.8125 L 30.746094 47.8125 C 30.65625 48.21875 30.457031 48.828125 30.136719 49.648438 L 25.597656 58.125 L 18.554688 58.125 L 26.917969 45 L 19.265625 31.875 L 26.457031 31.875 L 30.210938 39.742188 C 30.503906 40.363281 30.765625 41.101562 30.996094 41.953125 L 31.074219 41.953125 C 31.21875 41.445312 31.492188 40.679688 31.894531 39.664062 L 36.070312 31.875 L 42.660156 31.875 L 34.785156 44.886719 L 42.878906 58.121094 L 35.867188 58.121094 Z M 35.867188 58.125 "/>
</g>
</svg>
